<svg width="401" height="275" viewBox="0 0 401 275" fill="none" xmlns="http://www.w3.org/2000/svg">
<g clip-path="url(#clip0_1048_1507)">
<path d="M498.992 300.561C475.843 286.823 451.895 272.618 421.82 272.618C391.745 272.618 367.796 286.812 344.637 300.561L343.868 299.253C367.158 285.413 391.319 271.097 421.84 271.097C452.36 271.097 476.461 285.413 499.812 299.253L498.992 300.561Z" fill="white" fill-opacity="0.5"/>
<path d="M188.733 300.561C165.575 286.823 141.636 272.618 111.561 272.618C81.4861 272.618 57.5375 286.812 34.3787 300.561L33.6091 299.253C56.8995 285.413 81.0608 271.097 111.581 271.097C142.102 271.097 166.192 285.413 189.554 299.253L188.733 300.561Z" fill="white" fill-opacity="0.5"/>
<path d="M516.662 300.581C510.708 297.316 504.754 293.778 498.992 290.361C475.843 276.603 451.935 262.408 421.82 262.408C391.704 262.408 367.796 276.603 344.597 290.361C338.845 293.778 332.891 297.316 326.926 300.581L326.197 299.243C332.131 295.988 338.075 292.46 343.827 289.053C367.117 275.214 391.279 260.897 421.799 260.897C452.32 260.897 476.42 275.214 499.772 289.053C505.513 292.47 511.457 295.988 517.391 299.243L516.662 300.581Z" fill="white" fill-opacity="0.5"/>
<path d="M206.404 300.581C200.449 297.316 194.495 293.778 188.733 290.361C165.585 276.602 141.636 262.408 111.561 262.408C81.486 262.408 57.5374 276.602 34.3787 290.351C28.627 293.768 22.6727 297.306 16.7083 300.571L15.9792 299.232C21.9132 295.978 27.8574 292.45 33.6091 289.043C56.8995 275.203 81.0607 260.887 111.581 260.887C142.102 260.887 166.202 275.203 189.554 289.043C195.295 292.45 201.239 295.978 207.173 299.232L206.404 300.581Z" fill="white" fill-opacity="0.5"/>
<path d="M538.15 300.621C524.399 295.237 511.488 287.572 499.002 280.161C475.843 266.463 451.935 252.269 421.82 252.269C391.704 252.269 367.796 266.463 344.597 280.161C332.111 287.572 319.19 295.237 305.439 300.621L304.882 299.202C318.562 293.838 331.433 286.234 343.868 278.853C367.158 265.003 391.319 250.697 421.84 250.697C452.36 250.697 476.461 265.013 499.812 278.853C512.247 286.234 525.128 293.869 538.748 299.202L538.15 300.621Z" fill="white" fill-opacity="0.5"/>
<path d="M227.902 300.621C214.14 295.238 201.229 287.573 188.733 280.161C165.585 266.463 141.636 252.269 111.561 252.269C81.4861 252.269 57.5374 266.463 34.3787 280.212C21.974 287.522 9.14404 295.136 -4.51629 300.51L-5.06311 299.1C8.4757 293.767 21.2652 286.184 33.6091 278.823C56.8995 264.973 81.0608 250.667 111.581 250.667C142.102 250.667 166.202 264.983 189.554 278.823C201.989 286.204 214.869 293.838 228.489 299.171L227.902 300.621Z" fill="white" fill-opacity="0.5"/>
<path d="M266.685 298.117C236.185 298.117 212.064 283.801 188.713 269.962C165.564 256.223 141.616 242.009 111.541 242.009C81.4658 242.009 57.5172 256.203 34.3584 269.962C21.974 277.322 9.14404 284.937 -4.51629 290.31L-5.06311 288.891C8.4757 283.568 21.2652 275.984 33.6091 268.613C56.8995 254.763 81.0608 240.447 111.581 240.447C142.102 240.447 166.202 254.763 189.554 268.613C212.702 282.351 236.641 296.556 266.726 296.556C296.811 296.556 320.749 282.361 343.908 268.613C367.199 254.763 391.36 240.447 421.88 240.447V241.968C391.795 241.968 367.857 256.163 344.698 269.921C321.306 283.801 297.186 298.117 266.685 298.117Z" fill="white" fill-opacity="0.5"/>
<path d="M266.685 287.918C236.185 287.918 212.064 273.601 188.713 259.762C165.564 246.014 141.616 231.809 111.541 231.809C81.4658 231.809 57.5172 246.003 34.3584 259.762C21.974 267.123 9.14404 274.737 -4.51629 280.111L-5.06311 278.691C8.4757 273.368 21.2652 265.784 33.6091 258.413C56.8995 244.564 81.0608 230.248 111.581 230.248C142.102 230.248 166.202 244.564 189.554 258.413C212.702 272.152 236.641 286.356 266.726 286.356C296.811 286.356 320.749 272.162 343.908 258.413C367.199 244.564 391.36 230.248 421.88 230.248V231.768C391.795 231.768 367.857 245.963 344.698 259.721C321.306 273.561 297.186 287.918 266.685 287.918Z" fill="white" fill-opacity="0.5"/>
<path d="M266.685 277.717C236.185 277.717 212.064 263.401 188.713 249.562C165.564 235.813 141.616 221.609 111.541 221.609C81.4658 221.609 57.5172 235.803 34.3584 249.552C21.974 256.923 9.14404 264.537 -4.51629 269.911L-5.06311 268.491C8.4757 263.158 21.2652 255.584 33.6091 248.213C56.8995 234.374 81.0608 220.058 111.581 220.058C142.102 220.058 166.202 234.374 189.554 248.213C212.702 261.962 236.641 276.166 266.726 276.166C296.811 276.166 320.749 261.972 343.908 248.213C367.199 234.374 391.36 220.058 421.88 220.058V221.578C391.795 221.578 367.857 235.773 344.698 249.531C321.306 263.422 297.186 277.717 266.685 277.717Z" fill="white" fill-opacity="0.5"/>
<path d="M266.685 267.477C236.185 267.477 212.064 253.161 188.713 239.311C165.564 225.573 141.616 211.369 111.541 211.369C81.4658 211.369 57.5172 225.563 34.3584 239.311C21.974 246.713 9.14404 254.297 -4.51629 259.701L-5.06311 258.291C8.4757 252.958 21.2652 245.374 33.6091 238.014C56.8995 224.174 81.0608 209.858 111.581 209.858C142.102 209.858 166.202 224.174 189.554 238.014C212.702 251.752 236.641 265.967 266.726 265.967C296.811 265.967 320.749 251.772 343.908 238.014C367.199 224.174 391.36 209.858 421.88 209.858V211.379C391.795 211.379 367.857 225.573 344.698 239.322C321.306 253.202 297.186 267.477 266.685 267.477Z" fill="white" fill-opacity="0.5"/>
<path d="M266.685 257.338C236.185 257.338 212.064 243.022 188.713 229.173C165.564 215.434 141.616 201.23 111.541 201.23C81.4658 201.23 57.5172 215.424 34.3584 229.173C21.974 236.513 9.14404 244.158 -4.51629 249.501L-5.06311 248.092C8.4757 242.759 21.2652 235.175 33.6091 227.814C56.8995 213.974 81.0608 199.658 111.581 199.658C142.102 199.658 166.202 213.974 189.554 227.814C212.702 241.552 236.641 255.767 266.726 255.767C296.811 255.767 320.749 241.572 343.908 227.814C367.199 213.974 391.36 199.658 421.88 199.658V201.179C391.795 201.179 367.857 215.373 344.698 229.122C321.306 243.002 297.186 257.338 266.685 257.338Z" fill="white" fill-opacity="0.5"/>
<path d="M266.685 247.108C236.185 247.108 212.064 232.792 188.713 218.952C165.564 205.214 141.616 191 111.541 191C81.4658 191 57.5172 205.194 34.3584 218.952C21.974 226.313 9.14404 233.928 -4.51629 239.301L-5.06311 237.892C8.4757 232.559 21.2652 224.975 33.6091 217.614C56.8995 203.764 81.0608 189.448 111.581 189.448C142.102 189.448 166.202 203.764 189.554 217.614C212.702 231.352 236.641 245.557 266.726 245.557C296.811 245.557 320.749 231.362 343.908 217.614C367.199 203.764 391.36 189.448 421.88 189.448V190.969C391.795 190.969 367.857 205.164 344.698 218.922C321.306 232.792 297.186 247.108 266.685 247.108Z" fill="white" fill-opacity="0.5"/>
<path d="M266.685 236.909C236.185 236.909 212.064 222.593 188.713 208.753C165.564 195.015 141.616 180.8 111.541 180.8C81.4658 180.8 57.5172 194.995 34.3584 208.753C21.974 216.114 9.14404 223.728 -4.51629 229.102L-5.06311 227.682C8.4757 222.359 21.2652 214.776 33.6091 207.405C56.8995 193.555 81.0608 179.239 111.581 179.239C142.102 179.239 166.202 193.555 189.554 207.405C212.702 221.143 236.641 235.347 266.726 235.347C296.811 235.347 320.749 221.153 343.908 207.405C367.199 193.555 391.36 179.239 421.88 179.239V180.76C391.795 180.76 367.857 194.954 344.698 208.713C321.306 222.593 297.186 236.909 266.685 236.909Z" fill="white" fill-opacity="0.5"/>
<path d="M266.685 226.709C236.185 226.709 212.064 212.393 188.713 198.553C165.564 184.805 141.616 170.6 111.541 170.6C81.4658 170.6 57.5172 184.795 34.3584 198.553C21.974 205.914 9.14404 213.528 -4.51629 218.902L-5.06311 217.482C8.4757 212.149 21.2652 204.575 33.6091 197.205C56.8995 183.365 81.0608 169.049 111.581 169.049C142.102 169.049 166.202 183.365 189.554 197.205C212.702 210.953 236.641 225.157 266.726 225.157C296.811 225.157 320.749 210.963 343.908 197.205C367.199 183.365 391.36 169.049 421.88 169.049V170.57C391.795 170.57 367.857 184.764 344.698 198.523C321.306 212.393 297.186 226.709 266.685 226.709Z" fill="white" fill-opacity="0.5"/>
<path d="M266.685 216.509C236.185 216.509 212.064 202.193 188.713 188.343C165.564 174.605 141.616 160.401 111.541 160.401C81.4658 160.401 57.5374 174.605 34.3787 188.394C21.974 195.714 9.14404 203.329 -4.51629 208.672L-5.06311 207.252C8.4757 201.919 21.2652 194.335 33.6091 186.975C56.8995 173.135 81.0608 158.819 111.581 158.819C142.102 158.819 166.202 173.135 189.554 186.975C212.702 200.723 236.641 214.927 266.726 214.927C296.811 214.927 320.749 200.733 343.908 186.975C367.199 173.135 391.36 158.819 421.88 158.819V160.34C391.795 160.34 367.857 174.534 344.698 188.282C321.306 202.193 297.186 216.509 266.685 216.509Z" fill="white" fill-opacity="0.5"/>
<path d="M266.685 206.309C236.185 206.309 212.064 191.993 188.713 178.143C165.564 164.405 141.616 150.201 111.541 150.201C81.4658 150.201 57.5172 164.395 34.3584 178.143C21.974 185.504 9.14404 193.119 -4.51629 198.533L-5.06311 197.123C8.4757 191.79 21.2652 184.206 33.6091 176.846C56.8995 163.006 81.0608 148.69 111.581 148.69C142.102 148.69 166.202 163.006 189.554 176.846C212.702 190.584 236.641 204.799 266.726 204.799C296.811 204.799 320.749 190.604 343.908 176.846C367.199 163.006 391.36 148.69 421.88 148.69V150.211C391.795 150.211 367.857 164.405 344.698 178.154C321.306 191.993 297.186 206.309 266.685 206.309Z" fill="white" fill-opacity="0.5"/>
<path d="M266.685 196.11C236.185 196.11 212.064 181.793 188.713 167.944C165.564 154.206 141.616 140.001 111.541 140.001C81.4658 140.001 57.5172 154.195 34.3584 167.944C21.974 175.305 9.14404 182.919 -4.51629 188.292L-5.06311 186.883C8.4757 181.55 21.2652 173.966 33.6091 166.605C56.8995 152.756 81.0608 138.45 111.581 138.45C142.102 138.45 166.202 152.766 189.554 166.605C212.702 180.344 236.641 194.558 266.726 194.558C296.811 194.558 320.749 180.364 343.908 166.605C367.199 152.766 391.36 138.45 421.88 138.45V139.971C391.795 139.971 367.857 154.165 344.698 167.913C321.306 181.793 297.186 196.11 266.685 196.11Z" fill="white" fill-opacity="0.5"/>
<path d="M266.685 185.9C236.185 185.9 212.064 171.584 188.713 157.744C165.564 144.006 141.616 129.791 111.541 129.791C81.4658 129.791 57.5172 143.986 34.3584 157.744C21.974 165.075 9.14404 172.719 -4.51629 178.093L-5.06311 176.674C8.4757 171.351 21.2652 163.767 33.6091 156.396C56.8995 142.546 81.0608 128.23 111.581 128.23C142.102 128.23 166.202 142.546 189.554 156.396C212.662 170.144 236.6 184.339 266.685 184.339C296.77 184.339 320.709 170.144 343.868 156.396C367.158 142.546 391.319 128.23 421.84 128.23V129.751C391.755 129.751 367.816 143.945 344.658 157.704C321.306 171.584 297.186 185.9 266.685 185.9Z" fill="white" fill-opacity="0.5"/>
<path d="M266.685 175.7C236.185 175.7 212.064 161.384 188.713 147.545C165.564 133.806 141.616 119.592 111.541 119.592C81.4658 119.592 57.5172 133.786 34.3584 147.545C21.974 154.936 9.14404 162.52 -4.51629 167.893L-5.06311 166.474C8.4757 161.151 21.2652 153.567 33.6091 146.196C56.8995 132.346 81.0608 118.03 111.581 118.03C142.102 118.03 166.202 132.346 189.554 146.196C212.662 160.005 236.6 174.2 266.685 174.2C296.77 174.2 320.709 160.005 343.868 146.257C367.158 132.407 391.319 118.091 421.84 118.091V119.612C391.755 119.612 367.816 133.806 344.658 147.565C321.306 161.384 297.186 175.7 266.685 175.7Z" fill="white" fill-opacity="0.5"/>
<path d="M266.685 165.5C236.185 165.5 212.064 151.184 188.713 137.334C165.564 123.596 141.616 109.392 111.541 109.392C81.4658 109.392 57.5172 123.586 34.3584 137.334C21.974 144.705 9.14404 152.32 -4.51629 157.693L-5.06311 156.274C8.4757 150.941 21.2652 143.367 33.6091 135.996C56.8995 122.156 81.0608 107.84 111.581 107.84C142.102 107.84 166.202 122.156 189.554 135.996C212.702 149.744 236.641 163.949 266.726 163.949C296.811 163.949 320.749 149.755 343.908 135.996C367.199 122.156 391.36 107.84 421.88 107.84V109.361C391.795 109.361 367.857 123.556 344.698 137.304C321.306 151.184 297.186 165.5 266.685 165.5Z" fill="white" fill-opacity="0.5"/>
<path d="M266.685 155.3C236.185 155.3 212.064 140.984 188.713 127.135C165.585 113.366 141.636 99.1716 111.561 99.1716C81.4861 99.1716 57.5374 113.366 34.3787 127.114C21.974 134.506 9.14404 142.11 -4.51629 147.494L-5.06311 146.074C8.4757 140.741 21.2652 133.157 33.6091 125.796C56.8995 111.957 81.0608 97.6406 111.581 97.6406C142.102 97.6406 166.202 111.957 189.554 125.796C212.702 139.535 236.641 153.749 266.726 153.749C296.811 153.749 320.749 139.555 343.908 125.796C367.199 111.957 391.36 97.6406 421.88 97.6406V99.1716C391.795 99.1716 367.857 113.366 344.698 127.114C321.306 140.984 297.186 155.3 266.685 155.3Z" fill="white" fill-opacity="0.5"/>
<path d="M266.685 145.101C236.185 145.101 212.064 130.785 188.713 116.935C165.585 103.227 141.636 89.0327 111.561 89.0327C81.4861 89.0327 57.5374 103.227 34.3787 116.975C21.974 124.296 9.14404 131.91 -4.51629 137.284L-5.06311 135.874C8.4757 130.541 21.2652 122.957 33.6091 115.597C56.8995 101.757 81.0608 87.4409 111.581 87.4409C142.102 87.4409 166.202 101.757 189.554 115.597C212.702 129.335 236.641 143.55 266.726 143.55C296.811 143.55 320.749 129.355 343.908 115.597C367.199 101.757 391.36 87.4409 421.88 87.4409V89.0327C391.795 89.0327 367.857 103.227 344.698 116.975C321.306 130.785 297.186 145.101 266.685 145.101Z" fill="white" fill-opacity="0.5"/>
<path d="M266.685 134.891C236.185 134.891 212.064 120.585 188.713 106.736C165.564 92.9974 141.616 78.7827 111.541 78.7827C81.4658 78.7827 57.5172 92.9771 34.3584 106.736C21.974 114.096 9.14404 121.711 -4.51629 127.084L-5.06311 125.675C8.4757 120.342 21.2652 112.758 33.6091 105.397C56.8995 91.5476 81.0608 77.2314 111.581 77.2314C142.102 77.2314 166.202 91.5476 189.554 105.397C212.702 119.135 236.641 133.34 266.726 133.34C296.811 133.34 320.749 119.146 343.908 105.397C367.199 91.5476 391.36 77.2314 421.88 77.2314V78.7523C391.795 78.7523 367.857 92.9467 344.698 106.705C321.306 120.585 297.186 134.891 266.685 134.891Z" fill="white" fill-opacity="0.5"/>
<path d="M266.685 124.691C236.185 124.691 212.064 110.375 188.713 96.5358C165.564 82.7976 141.616 68.5829 111.541 68.5829C81.4658 68.5829 57.5172 82.7773 34.3584 96.5358C21.974 103.897 9.14404 111.511 -4.51629 116.885L-5.06311 115.465C8.4757 110.142 21.2652 102.558 33.6091 95.1873C56.8995 81.3376 81.0608 67.0215 111.581 67.0215C142.102 67.0215 166.202 81.3376 189.554 95.1873C212.702 108.926 236.641 123.13 266.726 123.13C296.811 123.13 320.749 108.936 343.908 95.1873C367.199 81.3376 391.36 67.0215 421.88 67.0215V68.5423C391.795 68.5423 367.857 82.7368 344.698 96.4952C321.306 110.375 297.186 124.691 266.685 124.691Z" fill="white" fill-opacity="0.5"/>
<path d="M266.685 114.492C236.185 114.492 212.064 100.176 188.713 86.3361C165.564 72.5877 141.616 58.3832 111.541 58.3832C81.4658 58.3832 57.5172 72.5776 34.3584 86.3361C21.974 93.6969 9.14404 101.311 -4.51629 106.685L-5.06311 105.255C8.4757 99.9323 21.2652 92.3484 33.6091 84.9775C56.8995 71.1379 81.0608 56.8218 111.581 56.8218C142.102 56.8218 166.202 71.1379 189.554 84.9876C212.702 98.7258 236.641 112.93 266.726 112.93C296.811 112.93 320.749 98.7359 343.908 84.9876C367.199 71.1379 391.36 56.8218 421.88 56.8218V58.3426C391.795 58.3426 367.857 72.5371 344.698 86.2955C321.306 100.186 297.186 114.492 266.685 114.492Z" fill="white" fill-opacity="0.5"/>
<path d="M266.685 104.292C236.185 104.292 212.064 89.9759 188.713 76.1262C165.564 62.388 141.616 48.1834 111.541 48.1834C81.4658 48.1834 57.5172 62.3779 34.3584 76.1262C21.974 83.4972 9.14404 91.1115 -4.51629 96.4851L-5.06311 95.1163C8.4757 89.7833 21.2652 82.2095 33.6091 74.8386C56.8995 60.999 81.0608 46.6829 111.581 46.6829C142.102 46.6829 166.202 60.999 189.554 74.8386C212.702 88.5869 236.641 102.791 266.726 102.791C296.811 102.791 320.749 88.597 343.908 74.8386C367.199 60.999 391.36 46.6829 421.88 46.6829V48.2037C391.795 48.2037 367.857 62.3981 344.698 76.1465C321.306 89.9759 297.186 104.292 266.685 104.292Z" fill="white" fill-opacity="0.5"/>
<path d="M266.685 94.1024C236.185 94.1024 212.064 79.7863 188.713 65.9365C165.564 52.1983 141.616 37.9938 111.541 37.9938C81.4658 37.9938 57.5172 52.1882 34.3584 65.9365C21.974 73.2872 9.14404 80.9218 -4.51629 86.2752L-5.06311 84.8658C8.4757 79.5328 21.2652 71.9489 33.6091 64.5881C56.8995 50.7485 81.0608 36.4324 111.581 36.4324C142.102 36.4324 166.202 50.7485 189.554 64.5881C212.702 78.3263 236.641 92.541 266.726 92.541C296.811 92.541 320.749 78.3465 343.908 64.5881C367.199 50.7485 391.36 36.4324 421.88 36.4324V37.9532C391.795 37.9532 367.857 52.1477 344.698 65.896C321.306 79.7761 297.186 94.1024 266.685 94.1024Z" fill="white" fill-opacity="0.5"/>
<path d="M266.685 83.8925C236.185 83.8925 212.064 69.5764 188.713 55.7267C165.564 41.9885 141.616 27.7839 111.541 27.7839C81.4658 27.7839 57.5172 41.9784 34.3584 55.7267C21.974 63.0875 9.14404 70.7018 -4.51629 76.0754L-5.06311 74.6661C8.4757 69.3331 21.2652 61.7492 33.6091 54.3884C56.8995 40.5488 81.0608 26.2327 111.581 26.2327C142.102 26.2327 166.202 40.5488 189.554 54.3884C212.702 68.1266 236.641 82.3413 266.726 82.3413C296.811 82.3413 320.749 68.1468 343.908 54.3884C367.199 40.5488 391.36 26.2327 421.88 26.2327V27.7535C391.795 27.7535 367.857 41.9479 344.698 55.6963C321.306 69.5764 297.186 83.8925 266.685 83.8925Z" fill="white" fill-opacity="0.5"/>
<path d="M266.685 73.6826C236.185 73.6826 212.064 59.3665 188.713 45.5269C165.564 31.7887 141.616 17.574 111.541 17.574C81.4658 17.574 57.5172 31.7684 34.3584 45.5269C21.974 52.8877 9.14404 60.502 -4.51629 65.8756L-5.06311 64.4663C8.4757 59.1333 21.2652 51.5494 33.6091 44.1885C56.8995 30.3388 81.0608 16.0227 111.581 16.0227C142.102 16.0227 166.202 30.3388 189.554 44.1885C212.702 57.9267 236.641 72.1313 266.726 72.1313C296.811 72.1313 320.749 57.9369 343.908 44.1885C367.199 30.3388 391.36 16.0227 421.88 16.0227V17.5435C391.795 17.5435 367.857 31.738 344.698 45.4965C321.306 59.3665 297.186 73.6826 266.685 73.6826Z" fill="white" fill-opacity="0.5"/>
<path d="M266.685 63.483C236.185 63.483 212.064 49.1669 188.713 35.3273C165.564 21.5891 141.616 7.37438 111.541 7.37438C81.4658 7.37438 57.5374 21.5891 34.3787 35.2969C21.974 42.6881 9.14404 50.3024 -4.51629 55.676L-5.06311 54.2566C8.4757 48.9337 21.2652 41.3498 33.6091 33.9788C56.8995 20.1291 81.0608 5.81299 111.581 5.81299C142.102 5.81299 166.202 20.1291 189.554 33.9788C212.702 47.717 236.641 61.9216 266.726 61.9216C296.811 61.9216 320.749 47.7272 343.908 33.9788C367.199 20.1291 391.36 5.81299 421.88 5.81299V7.33382C391.795 7.33382 367.857 21.5283 344.698 35.2867C321.306 49.1669 297.186 63.483 266.685 63.483Z" fill="white" fill-opacity="0.5"/>
<path d="M266.685 53.2832C236.185 53.2832 212.064 38.9671 188.713 25.1276C165.585 11.3792 141.636 -2.82536 111.561 -2.82536C81.4861 -2.82536 57.5374 11.3792 34.3787 25.158C21.974 32.4884 9.14404 40.1027 -4.51629 45.4357L-5.06311 44.0163C8.4757 38.6934 21.2652 31.1095 33.6091 23.7385C56.94 9.94964 81.0608 -4.34619 111.561 -4.34619C142.061 -4.34619 166.182 9.96992 189.533 23.8196C212.682 37.5578 236.62 51.7624 266.706 51.7624C296.791 51.7624 320.729 37.568 343.888 23.8196C367.178 9.96992 391.34 -4.34619 421.86 -4.34619V-2.82536C391.775 -2.82536 367.836 11.3691 344.678 25.1276C321.306 38.9671 297.186 53.2832 266.685 53.2832Z" fill="white" fill-opacity="0.5"/>
<path d="M266.685 43.0834C236.185 43.0834 212.064 28.7673 188.713 14.9176C165.585 1.1794 141.636 -13.0252 111.561 -13.0252C81.4861 -13.0252 57.5374 1.16926 34.3787 14.9176C21.974 22.2886 9.14404 29.9029 -4.51629 35.2968L-5.06311 33.8773C8.4757 28.5443 21.2652 20.9705 33.6091 13.5995C56.8995 -0.24004 81.0608 -14.5562 111.581 -14.5562C142.102 -14.5562 166.202 -0.24004 189.554 13.5995C212.702 27.3479 236.641 41.5525 266.726 41.5525C296.811 41.5525 320.749 27.358 343.908 13.5995C367.199 -0.24004 391.36 -14.5562 421.88 -14.5562V-13.0353C391.795 -13.0353 367.857 1.15913 344.698 14.9075C321.306 28.7673 297.186 43.0834 266.685 43.0834Z" fill="white" fill-opacity="0.5"/>
<path d="M266.685 32.8837C236.185 32.8837 212.064 18.5676 188.713 4.7179C165.585 -9.02029 141.636 -23.2249 111.561 -23.2249C81.4861 -23.2249 57.5374 -9.02029 34.3787 4.7179C21.974 12.0787 9.14404 19.693 -4.51629 25.0667L-5.06311 23.6573C8.4757 18.3243 21.2652 10.7404 33.6091 3.37957C56.8995 -10.46 81.0608 -24.7761 111.581 -24.7761C142.102 -24.7761 166.202 -10.46 189.554 3.37957C212.702 17.1178 236.641 31.3325 266.726 31.3325C296.811 31.3325 320.749 17.138 343.908 3.37957C367.199 -10.46 391.36 -24.7761 421.88 -24.7761V-23.2553C391.795 -23.2553 367.857 -9.06085 344.698 4.68749C321.306 18.5676 297.186 32.8837 266.685 32.8837Z" fill="white" fill-opacity="0.5"/>
<path d="M266.685 22.684C236.185 22.684 212.064 8.35778 188.713 -5.4818C176.298 -12.8629 163.438 -20.4671 149.798 -25.8306L150.345 -27.25C164.106 -21.8662 177.017 -14.2012 189.503 -6.78972C212.662 6.90792 236.6 21.1632 266.685 21.1632C296.77 21.1632 320.709 6.96875 343.868 -6.78972C356.353 -14.2012 369.264 -21.8662 383.077 -27.25L383.633 -25.8306C369.912 -20.4671 357.072 -12.8629 344.597 -5.4818C321.306 8.36792 297.186 22.684 266.685 22.684Z" fill="white" fill-opacity="0.5"/>
<path d="M-4.51629 14.8669L-5.06311 13.4576C8.4757 8.12459 21.2652 0.540697 33.6091 -6.82014C45.953 -14.181 59.0361 -21.8662 72.7673 -27.25L73.3243 -25.8306C59.6741 -20.4671 46.8137 -12.8629 34.3787 -5.4818C21.9436 1.89931 9.14404 9.49334 -4.51629 14.8669Z" fill="white" fill-opacity="0.5"/>
<path d="M266.685 12.4741C236.185 12.4741 212.064 -1.84198 188.713 -15.6816C182.971 -19.0984 177.027 -22.6166 171.083 -25.8204L171.812 -27.1588C177.777 -23.8941 183.731 -20.3556 189.493 -16.9388C212.662 -3.231 236.6 10.9634 266.685 10.9634C296.77 10.9634 320.709 -3.231 343.868 -16.9895C349.619 -20.4063 355.574 -23.9448 361.538 -27.2095L362.267 -25.8711C356.323 -22.6166 350.389 -19.0882 344.637 -15.7323C321.306 -1.84197 297.186 12.4741 266.685 12.4741Z" fill="white" fill-opacity="0.5"/>
<path d="M-4.51629 4.66722L-5.06311 3.24778C8.4757 -2.07514 21.2652 -9.65903 33.599 -17.03C39.3608 -20.4468 45.315 -23.9853 51.2794 -27.25L52.0085 -25.9117C46.0644 -22.6571 40.1203 -19.1287 34.3787 -15.7728C21.974 -8.30042 9.14404 -0.70639 -4.51629 4.66722Z" fill="white" fill-opacity="0.5"/>
<path d="M266.685 2.2744C236.185 2.2744 212.064 -12.0417 188.713 -25.8813L189.493 -27.1892C212.641 -13.451 236.58 0.753567 266.665 0.753567C296.75 0.753567 320.689 -13.4409 343.837 -27.1892L344.617 -25.8813C321.306 -12.0417 297.186 2.2744 266.685 2.2744Z" fill="white" fill-opacity="0.5"/>
</g>
<defs>
<clipPath id="clip0_1048_1507">
<rect width="401" height="292" fill="white" transform="translate(0 -9)"/>
</clipPath>
</defs>
</svg>
