<svg width="401" height="58" viewBox="0 0 401 58" fill="none" xmlns="http://www.w3.org/2000/svg">
<path d="M266.685 57.6826C236.185 57.6826 212.064 43.3665 188.713 29.5269C165.564 15.7887 141.616 1.57396 111.541 1.57396C81.4658 1.57396 57.5172 15.7684 34.3584 29.5269C21.974 36.8877 9.14401 44.502 -4.51632 49.8756L-5.06314 48.4663C8.47567 43.1333 21.2651 35.5494 33.6091 28.1885C56.8995 14.3388 81.0607 0.0227051 111.581 0.0227051C142.102 0.0227051 166.202 14.3388 189.554 28.1885C212.702 41.9267 236.641 56.1313 266.726 56.1313C296.811 56.1313 320.749 41.9369 343.908 28.1885C367.199 14.3388 391.36 0.0227051 421.88 0.0227051V1.54354C391.795 1.54354 367.857 15.738 344.698 29.4965C321.306 43.3665 297.186 57.6826 266.685 57.6826Z" fill="var(--White-50, rgba(255, 255, 255, 0.50));" fill-opacity="1"/>
</svg>
